<?xml version="1.0" encoding="UTF-8" standalone="no"?>
<!-- Created with Inkscape (http://www.inkscape.org/) -->

<svg
   xmlns:dc="http://purl.org/dc/elements/1.1/"
   xmlns:cc="http://creativecommons.org/ns#"
   xmlns:rdf="http://www.w3.org/1999/02/22-rdf-syntax-ns#"
   xmlns:svg="http://www.w3.org/2000/svg"
   xmlns="http://www.w3.org/2000/svg"
   version="1.1"
   width="32"
   height="32"
   viewBox="0 0 415 414.996"
   id="Layer_1"
   xml:space="preserve"><metadata
     id="metadata3067"><rdf:RDF><cc:Work
         rdf:about=""><dc:format>image/svg+xml</dc:format><dc:type
           rdf:resource="http://purl.org/dc/dcmitype/StillImage" /><dc:title></dc:title></cc:Work></rdf:RDF></metadata><defs
     id="defs3065" /><g
     transform="translate(37.885895,-5.407627)"
     id="g3121"
     style="fill:#222222;fill-opacity:1"><g
       id="g3118"
       style="fill:#222222;fill-opacity:1"><path
         d="m 357.654,260.769 c -0.958,3.177 -2.035,6.203 -3.211,9.09 l -1.378,3.188 C 320.638,344.246 109.748,352.553 75.079,260.705 l -1.163,-3.242 c -4.91,-14.454 -7.086,-31.007 -7.086,-49.499 0,-32.828 10.231,-45.213 23.963,-62.713 -10.5,-37.426 3.77,-63.005 3.77,-63.005 0,0 22.079,-4.577 63.813,25.309 22.617,-9.693 82.928,-10.5 111.469,-2.153 17.501,-11.579 49.543,-28.002 62.466,-23.403 3.502,5.632 11.041,22.056 4.579,58.137 4.384,7.915 27.193,24.771 27.28,72.427 -0.367,17.577 -2.197,32.419 -5.591,44.967 l -0.925,3.239 0,0 z M 327.646,249.45 c 0,-23.694 -11.018,-54.389 -54.388,-54.389 -3.177,0 -27.938,2.692 -52.417,2.692 -27.571,0 -56.125,-2.692 -60.496,-2.692 -44.157,0 -55.099,35.326 -55.099,51.513 0.001,97.099 222.4,93.54 222.4,2.876 z"
         id="path3049"
         style="fill:#222222;fill-opacity:1;fill-rule:evenodd" /></g><path
       d="m 179.557,249.18 c 0,-18.983 -10.326,-34.375 -23.066,-34.375 -12.739,0 -23.065,15.392 -23.065,34.375 0,18.983 10.326,32.22 23.065,32.22 12.739,0 23.066,-13.235 23.066,-32.22 z"
       id="path3051"
       style="fill:#222222;fill-opacity:1;fill-rule:evenodd" /><path
       d="m 304.217,249.18 c 0,-18.983 -10.324,-34.375 -23.064,-34.375 -12.737,0 -23.064,15.392 -23.064,34.375 0,18.983 10.327,32.22 23.064,32.22 12.74,0 23.064,-13.235 23.064,-32.22 z"
       id="path3053"
       style="fill:#222222;fill-opacity:1;fill-rule:evenodd" /></g></svg>